# xmcd CD database file
#
# Track frame offsets:
#	150
#	15882
#	32379
#	49615
#	72285
#	91350
#
# Disc length: 1474 seconds
#
# Revision: 0
# Processed by: cddbd v1.5.2PL0 Copyright (c) Steve Scherf et al.
# Submitted via: CDex 1.70beta3
#
DISCID=3905c006
DTITLE=Chubbiness - Chubbiness Wonderland
DYEAR=2017
DGENRE=avex
TTITLE0=ハレルヤ☆Wonderland
TTITLE1=虹色Flavor
TTITLE2=恋のエモーション
TTITLE3=踊ル Ah! Hooo!
TTITLE4=パリッChu プリッChu
TTITLE5=Let's BANG!
EXTD=YEAR: 2017
EXTT0=
EXTT1=
EXTT2=
EXTT3=
EXTT4=
EXTT5=
PLAYORDER=
